<?xml version="1.0" standalone="no"?>
<!DOCTYPE svg PUBLIC "-//W3C//DTD SVG 20010904//EN"
 "http://www.w3.org/TR/2001/REC-SVG-20010904/DTD/svg10.dtd">
<svg version="1.0" xmlns="http://www.w3.org/2000/svg"
 width="800.000000pt" height="800.000000pt" viewBox="0 0 800.000000 800.000000"
 preserveAspectRatio="xMidYMid meet">
<metadata>
Created by potrace 1.11, written by Peter Selinger 2001-2013
</metadata>
<g transform="translate(0.000000,800.000000) scale(0.100000,-0.100000)"
fill="#000000" stroke="none">
<path d="M0 4000 l0 -4000 4000 0 4000 0 0 4000 0 4000 -4000 0 -4000 0 0
-4000z m6388 3010 c212 -59 518 -237 671 -391 29 -30 97 -112 151 -184 182
-244 190 -266 221 -657 26 -327 24 -352 -37 -476 -91 -185 -366 -469 -564
-583 -33 -19 -60 -37 -60 -40 0 -3 75 -73 167 -155 310 -275 395 -358 480
-464 150 -186 249 -378 263 -508 7 -73 -16 -181 -69 -318 -53 -138 -108 -217
-577 -844 -499 -666 -752 -967 -833 -990 -54 -15 -88 -12 -103 9 -11 16 -127
137 -520 547 -43 44 -78 88 -78 97 0 30 57 82 146 131 49 27 112 62 140 78
l51 28 -13 67 c-165 833 -175 894 -273 1583 l-100 705 -37 600 c-32 527 -35
622 -28 780 l9 180 195 97 c163 81 203 98 242 98 47 0 47 1 58 40 16 60 30
193 30 291 0 47 3 113 6 147 l7 61 68 36 c115 60 135 65 229 60 47 -2 118 -14
158 -25z m-3108 -306 c23 -23 27 -104 39 -759 22 -1149 23 -1206 32 -1203 5 2
130 139 277 305 147 166 490 554 762 861 553 625 503 582 554 479 20 -40 40
-130 87 -392 33 -187 63 -349 65 -361 5 -18 -8 -25 -108 -63 -111 -43 -122
-50 -713 -472 -330 -235 -608 -434 -619 -442 -18 -13 -14 -23 82 -213 316
-621 719 -1217 1214 -1793 54 -62 101 -123 104 -135 6 -27 -18 -90 -87 -228
-152 -303 -590 -1078 -610 -1078 -17 0 -51 42 -70 86 -11 23 -37 119 -58 211
-22 92 -74 283 -116 423 -42 140 -177 588 -300 995 -123 407 -265 900 -315
1095 -51 195 -96 362 -100 370 -10 18 -33 -36 -58 -134 -16 -64 -18 -122 -17
-586 1 -564 -5 -450 95 -1673 28 -335 50 -633 50 -664 0 -99 -37 -144 -127
-156 -80 -10 -86 9 -237 645 -113 474 -131 565 -196 968 -39 245 -111 698
-161 1008 -49 310 -98 640 -109 735 -52 466 -77 917 -81 1492 l-2 270 59 48
c89 72 469 325 538 358 63 31 97 31 126 3z m-2061 -219 c42 -36 48 -65 62
-275 15 -231 8 -556 -26 -1200 -48 -928 -56 -1128 -45 -1239 8 -87 3 -229 -35
-885 -25 -429 -50 -855 -56 -945 -8 -130 -7 -166 3 -172 8 -5 61 39 158 134
80 78 403 394 718 702 348 340 582 561 595 563 12 1 28 -2 36 -7 14 -9 81
-236 100 -341 10 -61 71 -763 71 -829 0 -27 -7 -34 -70 -69 l-70 -39 -258 -27
-257 -27 -285 -91 c-157 -49 -337 -106 -400 -126 -87 -27 -140 -51 -220 -100
-151 -94 -138 -69 -124 -229 7 -89 21 -168 37 -223 14 -47 28 -108 32 -136 l7
-51 -44 -6 c-24 -4 -73 -9 -110 -13 l-67 -6 -47 98 c-46 97 -47 102 -60 253
-7 84 -15 155 -17 157 -2 2 -41 -1 -87 -7 -82 -10 -84 -10 -108 14 -23 23 -23
25 -8 55 9 18 44 61 77 97 l61 65 -36 488 c-39 511 -57 702 -107 1097 -33 266
-127 932 -134 953 -7 19 -23 207 -35 407 -5 94 -28 467 -51 830 -34 534 -40
668 -30 701 9 32 23 51 65 83 31 22 74 45 99 51 25 5 173 79 328 165 156 85
289 155 296 155 6 0 25 -11 42 -25z"/>
<path d="M5993 5728 c5 -478 21 -986 33 -1065 4 -30 6 -31 47 -26 61 8 144 50
302 154 183 120 255 178 311 250 134 175 205 440 163 616 -18 76 -92 221 -157
308 -80 108 -195 215 -268 251 -58 28 -63 29 -248 32 l-189 3 6 -523z"/>
<path d="M6355 4488 c-91 -46 -108 -51 -205 -61 -58 -5 -108 -13 -113 -17 -4
-3 13 -435 38 -959 25 -525 45 -965 45 -978 0 -20 3 -23 28 -17 29 7 257 169
412 293 408 326 593 644 552 949 -27 205 -126 401 -301 601 -97 111 -281 242
-338 240 -10 0 -63 -23 -118 -51z"/>
</g>
</svg>
